<svg enable-background="new 0 0 75 75" height="75" viewBox="0 0 75 75" width="75" xmlns="http://www.w3.org/2000/svg"><g fill="#fff"><path d="m5.692 69.32c-.387 0-.7-.312-.7-.699v-41.436c0-1.258 1.023-2.281 2.281-2.281h5.906c.387 0 .7.313.7.7s-.313.7-.7.7h-5.906c-.486 0-.881.395-.881.881v41.436c.001.387-.313.699-.7.699z"/><path d="m69.309 69.32c-.387 0-.699-.312-.699-.699v-41.436c0-.486-.396-.881-.881-.881h-6.359c-.387 0-.7-.313-.7-.7s.313-.7.7-.7h6.359c1.258 0 2.28 1.023 2.28 2.281v41.436c0 .387-.314.699-.7.699z"/><path d="m68.37 74.57h-62.095c-1.845 0-3.398-1.319-3.693-3.139l-.443-2.697c-.033-.202.024-.41.157-.566s.328-.247.534-.247h28.78c.229 0 .444.112.575.302l.891 1.278h7.238l.979-1.301c.133-.177.34-.279.561-.279h30.316c.205 0 .4.091.533.247s.189.363.156.564l-.383 2.348c-.33 2.024-2.057 3.49-4.106 3.49zm-64.716-5.25.31 1.887c.185 1.139 1.156 1.963 2.311 1.963h62.095c1.358 0 2.506-.975 2.728-2.314l.25-1.533h-29.147l-.979 1.301c-.134.176-.341.279-.561.279h-7.951c-.229 0-.444-.112-.575-.301l-.891-1.279h-27.59z"/><path d="m37.564 48.742c-.122 0-.244-.031-.356-.098l-22.417-13.278c-.333-.197-.442-.626-.245-.959s.626-.442.959-.245l22.417 13.277c.333.196.441.627.246.959-.132.221-.365.344-.604.344z"/><path d="m37.565 48.742c-.241 0-.475-.124-.605-.348-.195-.334-.083-.763.251-.957l22.395-13.081c.336-.195.765-.081.957.251.195.334.082.763-.25.958l-22.396 13.081c-.11.065-.232.096-.352.096z"/><path d="m58.064 56.764c-.006 0-.01 0-.016 0l-2.729-.016-10.396-.186-28.15-.012c-1.487-.008-2.69-1.223-2.685-2.707l.071-18.063c.007-.952.518-1.838 1.333-2.315l3.215-1.887c.332-.196.762-.085.958.249.196.333.084.763-.249.958l-3.216 1.888c-.393.229-.638.657-.641 1.115l-.071 18.062c-.003.713.576 1.297 1.289 1.301l28.159.014 13.121.199c.338-.018.678-.133.926-.379.248-.245.387-.573.388-.924l.07-18.261c.002-.465-.246-.899-.646-1.131l-2.846-1.854c-.323-.211-.415-.645-.203-.969.21-.324.645-.414.969-.204l2.812 1.834c.803.464 1.318 1.364 1.313 2.329l-.07 18.259c-.002.725-.287 1.403-.802 1.914-.509.506-1.185.786-1.904.786z"/><path d="m54.051 38.548c-.387 0-.699-.313-.699-.7v-12.687c0-.387.312-.7.699-.7s.7.313.7.7v12.687c0 .386-.313.7-.7.7z"/><path d="m21.504 38.548c-.387 0-.7-.313-.7-.7v-13.015c0-.387.313-.7.7-.7h5.603c1.728 0 3.134-1.406 3.134-3.134v-5.795c0-.387.313-.7.7-.7h9.069c.387 0 .7.313.7.7s-.313.7-.7.7h-8.369v5.095c0 2.5-2.034 4.534-4.534 4.534h-4.902v12.314c-.001.387-.314.701-.701.701z"/><path d="m21.504 25.533c-.177 0-.354-.067-.49-.2-.276-.271-.281-.714-.01-.99l9.437-9.629c.27-.277.713-.28.99-.01.276.271.281.714.01.99l-9.437 9.629c-.137.14-.318.21-.5.21z"/><path d="m45.148 30.401h-15.169c-.387 0-.7-.313-.7-.7s.313-.7.7-.7h15.171c.387 0 .699.313.699.7.001.387-.313.7-.701.7z"/><path d="m45.148 35.27h-15.169c-.387 0-.7-.313-.7-.7s.313-.7.7-.7h15.171c.387 0 .699.313.699.7.001.387-.313.7-.701.7z"/><path d="m54.043 22.32c-2.84 0-5.521-1.079-7.577-3.052-2.106-2.026-3.301-4.751-3.358-7.674s1.025-5.694 3.052-7.802 4.752-3.302 7.676-3.359c2.067-.044 4.097.5 5.86 1.563.33.2.438.63.238.961-.201.332-.629.438-.961.238-1.539-.926-3.306-1.383-5.111-1.363-2.549.051-4.926 1.091-6.692 2.93-1.767 1.839-2.711 4.255-2.66 6.805.05 2.548 1.091 4.925 2.929 6.691 1.84 1.766 4.229 2.713 6.807 2.66 2.548-.051 4.925-1.091 6.691-2.929s2.711-4.254 2.658-6.803c-.02-1-.193-1.984-.517-2.925-.126-.366.069-.764.435-.89.367-.125.766.069.891.435.371 1.079.57 2.207.593 3.352.06 2.922-1.024 5.692-3.052 7.801-2.024 2.108-4.75 3.301-7.672 3.358-.08.002-.155.003-.23.003z"/><path d="m55.17 15.955h-5.223c-.387 0-.7-.313-.7-.7s.313-.7.7-.7h5.223c.684 0 1.239-.555 1.239-1.238 0-.684-.556-1.241-1.239-1.241h-2.088c-1.456 0-2.641-1.185-2.641-2.641s1.185-2.641 2.641-2.641h5.07c.387 0 .699.313.699.7s-.312.7-.699.7h-5.07c-.684 0-1.24.556-1.24 1.24s.557 1.24 1.24 1.24h2.088c1.455 0 2.641 1.185 2.641 2.641s-1.186 2.64-2.641 2.64z"/><path d="m54.051 19.163c-.387 0-.699-.313-.699-.7v-14.174c0-.387.312-.7.699-.7s.7.313.7.7v14.174c0 .386-.313.7-.7.7z"/></g></svg>