<?xml version="1.0" encoding="utf-8"?>
<!-- Generator: Adobe Illustrator 16.0.4, SVG Export Plug-In . SVG Version: 6.00 Build 0)  -->
<!DOCTYPE svg PUBLIC "-//W3C//DTD SVG 1.1//EN" "http://www.w3.org/Graphics/SVG/1.1/DTD/svg11.dtd">
<svg version="1.1" id="Layer_1" xmlns="http://www.w3.org/2000/svg" xmlns:xlink="http://www.w3.org/1999/xlink" x="0px" y="0px"
	 width="75px" height="75px" viewBox="0 0 75 75" enable-background="new 0 0 75 75" xml:space="preserve">
<g id="XMLID_1891_">
	<g id="XMLID_1898_">
		<path fill="#FFFFFF" d="M69.684,56.967H4.452c-0.387,0-0.7-0.312-0.7-0.699V20.775c0-2.209,1.798-4.007,4.007-4.007h10.376
			c0.387,0,0.7,0.313,0.7,0.7c0,0.387-0.313,0.7-0.7,0.7H7.759c-1.438,0-2.607,1.169-2.607,2.607v34.792h63.831V20.775
			c0-1.438-1.17-2.607-2.607-2.607H55.848c-0.387,0-0.699-0.313-0.699-0.7c0-0.387,0.312-0.7,0.699-0.7h10.527
			c2.21,0,4.008,1.798,4.008,4.007v35.493C70.383,56.652,70.068,56.967,69.684,56.967z"/>
	</g>
	<g id="XMLID_1897_">
		<path fill="#FFFFFF" d="M46.895,74.48H27.242c-0.387,0-0.7-0.312-0.7-0.699V63.65c0-0.387,0.313-0.699,0.7-0.699h19.652
			c0.387,0,0.699,0.312,0.699,0.699v10.131C47.594,74.168,47.279,74.48,46.895,74.48z M27.942,73.081h18.251v-8.729H27.942V73.081z"
			/>
	</g>
	<g id="XMLID_1896_">
		<path fill="#FFFFFF" d="M66.332,64.352H7.804c-2.234,0-4.052-1.816-4.052-4.051v-5.458c0-0.387,0.313-0.7,0.7-0.7
			c0.387,0,0.7,0.313,0.7,0.7v5.458c0,1.463,1.189,2.65,2.651,2.65h58.528c1.462,0,2.649-1.188,2.649-2.65v-5.458
			c0-0.387,0.313-0.7,0.701-0.7c0.387,0,0.699,0.313,0.699,0.7v5.458C70.383,62.534,68.564,64.352,66.332,64.352z"/>
	</g>
	<g id="XMLID_1895_">
		<path fill="#FFFFFF" d="M50.973,74.7h-27.55c-0.387,0-0.7-0.313-0.7-0.7s0.313-0.7,0.7-0.7h27.55c0.387,0,0.7,0.313,0.7,0.7
			S51.359,74.7,50.973,74.7z"/>
	</g>
	<g id="XMLID_1894_">
		<path fill="#FFFFFF" d="M53.216,46.268H21.178c-0.387,0-0.7-0.313-0.7-0.701V14.311c0-0.941,0.766-1.708,1.707-1.708h30.024
			c0.941,0,1.707,0.766,1.707,1.708v31.255C53.916,45.953,53.604,46.268,53.216,46.268z M21.878,44.866h30.638V14.311
			c0-0.169-0.138-0.307-0.307-0.307H22.185c-0.169,0-0.307,0.138-0.307,0.307V44.866z"/>
	</g>
	<g id="XMLID_1893_">
		<path fill="#FFFFFF" d="M47.243,16.501c-0.388,0-0.7-0.313-0.7-0.7v-4.53c0-5.155-4.191-9.349-9.346-9.349
			s-9.348,4.194-9.348,9.349v4.53c0,0.387-0.313,0.7-0.7,0.7c-0.387,0-0.7-0.313-0.7-0.7v-4.53c0-5.927,4.822-10.749,10.749-10.749
			c5.926,0,10.745,4.822,10.745,10.749v4.53C47.943,16.188,47.63,16.501,47.243,16.501z"/>
	</g>
	<g id="XMLID_1892_">
		<path fill="#FFFFFF" d="M37.18,36.721c-0.179,0-0.357-0.068-0.494-0.204l-6.131-6.101c-0.911-0.944-1.407-2.171-1.407-3.464
			c0-2.751,2.238-4.989,4.989-4.989c1.125,0,2.189,0.369,3.061,1.051c0.872-0.682,1.936-1.051,3.058-1.051
			c2.752,0,4.99,2.238,4.99,4.989c0,1.067-0.336,2.087-0.973,2.948c-0.012,0.017-0.211,0.269-0.287,0.355l-6.314,6.263
			C37.536,36.653,37.358,36.721,37.18,36.721z M34.137,23.363c-1.979,0-3.588,1.61-3.588,3.589c0,0.929,0.356,1.811,1.004,2.482
			l5.628,5.6l5.79-5.742c0.032-0.038,0.188-0.237,0.189-0.239c0.443-0.603,0.686-1.334,0.686-2.101c0-1.979-1.609-3.589-3.59-3.589
			c-0.968,0-1.877,0.383-2.559,1.078c-0.131,0.134-0.312,0.21-0.5,0.21l0,0c-0.188,0-0.368-0.076-0.5-0.21
			C36.017,23.746,35.107,23.363,34.137,23.363z"/>
	</g>
</g>
</svg>
