<svg enable-background="new 0 0 75 75" height="75" viewBox="0 0 75 75" width="75" xmlns="http://www.w3.org/2000/svg" xmlns:xlink="http://www.w3.org/1999/xlink"><linearGradient id="a"><stop offset="0" stop-color="#00a9e1"/><stop offset=".0112" stop-color="#01a7df"/><stop offset=".1992" stop-color="#0985c4"/><stop offset=".3911" stop-color="#106aaf"/><stop offset=".5863" stop-color="#1457a0"/><stop offset=".7866" stop-color="#174c97"/><stop offset="1" stop-color="#184894"/></linearGradient><linearGradient id="b" gradientUnits="userSpaceOnUse" x1="4.0361" x2="69.5533" xlink:href="#a" y1="1.2158" y2="66.733"/><linearGradient id="c" gradientUnits="userSpaceOnUse" x1="-12.7739" x2="52.7432" xlink:href="#a" y1="18.0259" y2="83.5431"/><linearGradient id="d" gradientUnits="userSpaceOnUse" x1="-6.9775" x2="58.5396" xlink:href="#a" y1="12.2295" y2="77.7467"/><linearGradient id="e" gradientUnits="userSpaceOnUse" x1="-15.5762" x2="49.941" xlink:href="#a" y1="20.8281" y2="86.3453"/><linearGradient id="f" gradientUnits="userSpaceOnUse" x1="10.0337" x2="75.5509" xlink:href="#a" y1="-4.7817" y2="60.7354"/><linearGradient id="g" gradientUnits="userSpaceOnUse" x1="13.7876" x2="79.3048" xlink:href="#a" y1="-8.5356" y2="56.9815"/><linearGradient id="h" gradientUnits="userSpaceOnUse" x1="6.5361" x2="72.0533" xlink:href="#a" y1="-1.2842" y2="64.233"/><linearGradient id="i" gradientUnits="userSpaceOnUse" x1="10.0322" x2="75.5494" xlink:href="#a" y1="-4.7803" y2="60.7369"/><linearGradient id="j" gradientUnits="userSpaceOnUse" x1="10.0347" x2="75.5518" xlink:href="#a" y1="-4.7827" y2="60.7345"/><linearGradient id="k" gradientUnits="userSpaceOnUse" x1="15.3418" x2="80.859" xlink:href="#a" y1="-10.0898" y2="55.4273"/><linearGradient id="l" gradientUnits="userSpaceOnUse" x1="4.8179" x2="70.335" xlink:href="#a" y1=".4341" y2="65.9513"/><path d="m72.961 55.466h-70.922c-.387 0-.7-.313-.7-.7v-38.753c0-2.277 1.854-4.13 4.132-4.13h7.977c.387 0 .7.313.7.7s-.313.7-.7.7h-7.977c-1.506 0-2.731 1.224-2.731 2.729v38.053h69.521v-38.052c0-1.505-1.223-2.729-2.726-2.729h-8.403c-.387 0-.7-.313-.7-.7s.313-.7.7-.7h8.403c2.275 0 4.126 1.853 4.126 4.13v38.753c0 .385-.313.699-.7.699z" fill="url(#b)"/><path d="m48.187 74.507h-21.37c-.387 0-.7-.313-.7-.7v-11.012c0-.387.313-.7.7-.7h21.37c.387 0 .7.313.7.7v11.012c0 .386-.314.7-.7.7zm-20.67-1.401h19.97v-9.611h-19.97z" fill="url(#c)"/><path d="m68.531 63.495h-62.062c-2.829 0-5.13-2.302-5.13-5.131v-5.146c0-.387.313-.7.7-.7s.7.313.7.7v5.146c0 2.057 1.673 3.73 3.729 3.73h62.062c2.057 0 3.729-1.674 3.729-3.73v-5.146c0-.387.313-.7.7-.7s.7.313.7.7v5.146c.002 2.829-2.3 5.131-5.128 5.131z" fill="url(#d)"/><path d="m52.618 74.745h-29.954c-.387 0-.7-.313-.7-.7s.313-.7.7-.7h29.954c.387 0 .7.313.7.7s-.313.7-.7.7z" fill="url(#e)"/><path d="m37.326 44.772c-12.273 0-22.259-9.987-22.259-22.262 0-12.272 9.985-22.256 22.259-22.256 12.276 0 22.264 9.984 22.264 22.256 0 12.276-9.987 22.262-22.264 22.262zm0-43.117c-11.501 0-20.858 9.355-20.858 20.855 0 11.503 9.357 20.861 20.858 20.861 11.504 0 20.863-9.358 20.863-20.861 0-11.499-9.359-20.855-20.863-20.855z" fill="url(#f)"/><path d="m44.807 43.434c-.126 0-.255-.034-.37-.106-.328-.205-.428-.637-.223-.965 3.381-5.409 5.243-12.479 5.243-19.907 0-7.369-1.829-14.386-5.151-19.758-.203-.329-.102-.76.228-.963.328-.205.76-.102.964.227 3.456 5.591 5.36 12.869 5.36 20.495 0 7.687-1.938 15.021-5.456 20.649-.133.21-.362.328-.595.328z" fill="url(#g)"/><path d="m30.401 43.434c-.233 0-.461-.116-.594-.329-3.523-5.628-5.464-12.962-5.464-20.649 0-7.609 1.905-14.888 5.364-20.494.204-.329.634-.431.963-.228s.431.634.228.963c-3.325 5.388-5.155 12.405-5.155 19.759 0 7.428 1.865 14.498 5.25 19.907.205.327.106.76-.222.965-.115.071-.243.106-.37.106z" fill="url(#h)"/><path d="m37.326 44.772c-.387 0-.7-.313-.7-.7v-43.117c0-.387.313-.7.7-.7s.7.313.7.7v43.117c0 .387-.313.7-.7.7z" fill="url(#i)"/><path d="m58.89 23.211h-43.122c-.387 0-.7-.313-.7-.7s.313-.7.7-.7h43.122c.387 0 .7.313.7.7s-.314.7-.7.7z" fill="url(#j)"/><path d="m56.32 12.97h-37.238c-.387 0-.7-.313-.7-.7s.313-.7.7-.7h37.238c.387 0 .7.313.7.7s-.313.7-.7.7z" fill="url(#k)"/><path d="m55.925 33.458h-37.568c-.387 0-.7-.313-.7-.7s.313-.7.7-.7h37.567c.387 0 .7.313.7.7s-.312.7-.699.7z" fill="url(#l)"/></svg>